<svg xmlns="http://www.w3.org/2000/svg" viewBox="0 0 64 64">
  <circle cx="32" cy="32" r="30" fill="#1A3D1F"/>
  <ellipse cx="32" cy="38" rx="8" ry="14" fill="#F4607A"/>
  <circle cx="32" cy="22" r="6" fill="#F4849A"/>
  <ellipse cx="32" cy="21" rx="5" ry="4.5" fill="#F4607A"/>
  <path d="M32 22 Q38 18 36 14" stroke="#F4607A" stroke-width="2" fill="none"/>
  <rect x="28" y="19" width="10" height="3" rx="1.5" fill="#333" opacity="0.8"/>
  <line x1="27" y1="20" x2="25" y2="18" stroke="#333" stroke-width="1.5" stroke-linecap="round"/>
  <line x1="39" y1="20" x2="41" y2="18" stroke="#333" stroke-width="1.5" stroke-linecap="round"/>
  <path d="M30 24 Q32 26 34 24" stroke="#F4607A" stroke-width="1" fill="none"/>
  <line x1="30" y1="52" x2="30" y2="46" stroke="#F4849A" stroke-width="1.5"/>
  <line x1="34" y1="52" x2="34" y2="46" stroke="#F4849A" stroke-width="1.5"/>
  <path d="M15 30 Q10 20 18 15" stroke="#4A8C3F" stroke-width="2" fill="none"/>
  <path d="M12 35 Q8 28 14 22" stroke="#4A8C3F" stroke-width="1.5" fill="none"/>
  <path d="M49 30 Q54 20 46 15" stroke="#4A8C3F" stroke-width="2" fill="none"/>
  <path d="M52 35 Q56 28 50 22" stroke="#4A8C3F" stroke-width="1.5" fill="none"/>
</svg>
